<?xml version="1.0" standalone="no"?>
<!DOCTYPE svg PUBLIC "-//W3C//DTD SVG 20010904//EN"
 "http://www.w3.org/TR/2001/REC-SVG-20010904/DTD/svg10.dtd">
<svg version="1.0" xmlns="http://www.w3.org/2000/svg"
 width="1072.000000pt" height="1072.000000pt" viewBox="0 0 1072.000000 1072.000000"
 preserveAspectRatio="xMidYMid meet">
<metadata>
Created by potrace 1.11, written by Peter Selinger 2001-2013
</metadata>
<g transform="translate(0.000000,1072.000000) scale(0.100000,-0.100000)"
fill="#000000" stroke="none">
<path d="M5020 10183 c0 -21 0 -45 -1 -53 -1 -14 -1 -367 0 -402 1 -27 1 -67
0 -80 -1 -13 0 -369 0 -400 1 -27 1 -67 0 -80 -1 -13 0 -369 0 -400 1 -27 1
-67 0 -80 -1 -13 0 -369 0 -400 1 -27 1 -67 0 -80 -1 -24 0 -393 1 -413 1 -11
1 -27 1 -35 -1 -8 -1 -31 -1 -51 l0 -37 -2130 2 c-1887 1 -2130 -1 -2131 -14
-1 -8 -3 -649 -4 -1425 -1 -775 -3 -1414 -4 -1420 -1 -6 -133 -10 -376 -9
l-375 0 0 -272 0 -272 370 0 c204 1 374 -2 378 -6 4 -4 7 -850 7 -1879 l0
-1872 4983 -3 4982 -2 0 3585 0 3585 -1175 0 -1175 0 -1 43 c0 23 -1 597 -1
1275 l0 1232 -1674 0 -1674 0 0 -37z"/>
</g>
</svg>
